<mxfile host="app.diagrams.net" modified="2024-04-19T07:24:28.812Z" agent="Mozilla/5.0 (Windows NT 10.0; Win64; x64) AppleWebKit/537.36 (KHTML, like Gecko) Chrome/123.0.0.0 Safari/537.36 Edg/123.0.0.0" etag="sO1ycNgmazy-4RmUVNub" version="24.2.5" type="github">
  <diagram name="demo app" id="Jm23Cz2FIQQwmrMKFf7c">
    <mxGraphModel dx="868" dy="474" grid="1" gridSize="10" guides="1" tooltips="1" connect="1" arrows="1" fold="1" page="1" pageScale="1" pageWidth="827" pageHeight="1169" math="0" shadow="0">
      <root>
        <mxCell id="0" />
        <mxCell id="1" parent="0" />
        <mxCell id="tvADo90Zjv4e_7KjPEh_-10" value="demo app" style="rounded=0;whiteSpace=wrap;html=1;verticalAlign=top;fillColor=#d5e8d4;strokeColor=#82b366;" vertex="1" parent="1">
          <mxGeometry x="144" y="170" width="540" height="320" as="geometry" />
        </mxCell>
        <mxCell id="tvADo90Zjv4e_7KjPEh_-1" value="frontend" style="rounded=0;whiteSpace=wrap;html=1;verticalAlign=top;" vertex="1" parent="1">
          <mxGeometry x="169" y="220" width="130" height="240" as="geometry" />
        </mxCell>
        <mxCell id="tvADo90Zjv4e_7KjPEh_-2" value="map services&lt;span style=&quot;color: rgba(0, 0, 0, 0); font-family: monospace; font-size: 0px; text-align: start; text-wrap: nowrap;&quot;&gt;%3CmxGraphModel%3E%3Croot%3E%3CmxCell%20id%3D%220%22%2F%3E%3CmxCell%20id%3D%221%22%20parent%3D%220%22%2F%3E%3CmxCell%20id%3D%222%22%20value%3D%22frontend%22%20style%3D%22rounded%3D0%3BwhiteSpace%3Dwrap%3Bhtml%3D1%3B%22%20vertex%3D%221%22%20parent%3D%221%22%3E%3CmxGeometry%20x%3D%22349%22%20y%3D%22150%22%20width%3D%22130%22%20height%3D%22240%22%20as%3D%22geometry%22%2F%3E%3C%2FmxCell%3E%3C%2Froot%3E%3C%2FmxGraphModel%3E&lt;/span&gt;" style="rounded=0;whiteSpace=wrap;html=1;verticalAlign=top;" vertex="1" parent="1">
          <mxGeometry x="349" y="220" width="130" height="240" as="geometry" />
        </mxCell>
        <mxCell id="tvADo90Zjv4e_7KjPEh_-3" value="data sources" style="rounded=0;whiteSpace=wrap;html=1;verticalAlign=top;" vertex="1" parent="1">
          <mxGeometry x="529" y="220" width="130" height="240" as="geometry" />
        </mxCell>
        <mxCell id="tvADo90Zjv4e_7KjPEh_-14" style="edgeStyle=orthogonalEdgeStyle;rounded=0;orthogonalLoop=1;jettySize=auto;html=1;entryX=0;entryY=0.5;entryDx=0;entryDy=0;" edge="1" parent="1" source="tvADo90Zjv4e_7KjPEh_-4" target="tvADo90Zjv4e_7KjPEh_-7">
          <mxGeometry relative="1" as="geometry" />
        </mxCell>
        <mxCell id="tvADo90Zjv4e_7KjPEh_-28" value="9090" style="edgeLabel;html=1;align=center;verticalAlign=middle;resizable=0;points=[];" vertex="1" connectable="0" parent="tvADo90Zjv4e_7KjPEh_-14">
          <mxGeometry x="-0.0152" relative="1" as="geometry">
            <mxPoint as="offset" />
          </mxGeometry>
        </mxCell>
        <mxCell id="tvADo90Zjv4e_7KjPEh_-4" value="react app" style="rounded=0;whiteSpace=wrap;html=1;fillColor=#e1d5e7;strokeColor=#9673a6;" vertex="1" parent="1">
          <mxGeometry x="174" y="250" width="120" height="40" as="geometry" />
        </mxCell>
        <mxCell id="tvADo90Zjv4e_7KjPEh_-5" value="npm server" style="rounded=0;whiteSpace=wrap;html=1;" vertex="1" parent="1">
          <mxGeometry x="174" y="300" width="120" height="40" as="geometry" />
        </mxCell>
        <mxCell id="tvADo90Zjv4e_7KjPEh_-6" value="leaflet js" style="rounded=0;whiteSpace=wrap;html=1;fillColor=#60a917;strokeColor=#2D7600;fontColor=#ffffff;" vertex="1" parent="1">
          <mxGeometry x="174" y="350" width="120" height="40" as="geometry" />
        </mxCell>
        <mxCell id="tvADo90Zjv4e_7KjPEh_-15" style="edgeStyle=orthogonalEdgeStyle;rounded=0;orthogonalLoop=1;jettySize=auto;html=1;entryX=0;entryY=0.5;entryDx=0;entryDy=0;" edge="1" parent="1" source="tvADo90Zjv4e_7KjPEh_-7" target="tvADo90Zjv4e_7KjPEh_-8">
          <mxGeometry relative="1" as="geometry" />
        </mxCell>
        <mxCell id="tvADo90Zjv4e_7KjPEh_-26" value="5432" style="edgeLabel;html=1;align=center;verticalAlign=middle;resizable=0;points=[];" vertex="1" connectable="0" parent="tvADo90Zjv4e_7KjPEh_-15">
          <mxGeometry x="0.0784" y="1" relative="1" as="geometry">
            <mxPoint as="offset" />
          </mxGeometry>
        </mxCell>
        <mxCell id="tvADo90Zjv4e_7KjPEh_-16" style="edgeStyle=orthogonalEdgeStyle;rounded=0;orthogonalLoop=1;jettySize=auto;html=1;" edge="1" parent="1" source="tvADo90Zjv4e_7KjPEh_-7" target="tvADo90Zjv4e_7KjPEh_-9">
          <mxGeometry relative="1" as="geometry" />
        </mxCell>
        <mxCell id="tvADo90Zjv4e_7KjPEh_-27" value="storage" style="edgeLabel;html=1;align=center;verticalAlign=middle;resizable=0;points=[];" vertex="1" connectable="0" parent="tvADo90Zjv4e_7KjPEh_-16">
          <mxGeometry y="1" relative="1" as="geometry">
            <mxPoint as="offset" />
          </mxGeometry>
        </mxCell>
        <mxCell id="tvADo90Zjv4e_7KjPEh_-7" value="geoserwer" style="rounded=0;whiteSpace=wrap;html=1;fillColor=#dae8fc;strokeColor=#6c8ebf;" vertex="1" parent="1">
          <mxGeometry x="354" y="300" width="120" height="40" as="geometry" />
        </mxCell>
        <mxCell id="tvADo90Zjv4e_7KjPEh_-8" value="popstgis" style="rounded=0;whiteSpace=wrap;html=1;fillColor=#fa6800;fontColor=#000000;strokeColor=#C73500;" vertex="1" parent="1">
          <mxGeometry x="534" y="275" width="120" height="40" as="geometry" />
        </mxCell>
        <mxCell id="tvADo90Zjv4e_7KjPEh_-9" value="gpkg, fgb files" style="rounded=0;whiteSpace=wrap;html=1;" vertex="1" parent="1">
          <mxGeometry x="534" y="325" width="120" height="40" as="geometry" />
        </mxCell>
        <mxCell id="tvADo90Zjv4e_7KjPEh_-23" style="edgeStyle=orthogonalEdgeStyle;rounded=0;orthogonalLoop=1;jettySize=auto;html=1;exitX=0.5;exitY=0.5;exitDx=0;exitDy=0;exitPerimeter=0;entryX=0;entryY=0;entryDx=0;entryDy=0;" edge="1" parent="1" source="tvADo90Zjv4e_7KjPEh_-17" target="tvADo90Zjv4e_7KjPEh_-7">
          <mxGeometry relative="1" as="geometry">
            <mxPoint x="350" y="300" as="targetPoint" />
            <Array as="points">
              <mxPoint x="55" y="150" />
              <mxPoint x="340" y="150" />
              <mxPoint x="340" y="300" />
            </Array>
          </mxGeometry>
        </mxCell>
        <mxCell id="tvADo90Zjv4e_7KjPEh_-24" value="ows" style="edgeLabel;html=1;align=center;verticalAlign=middle;resizable=0;points=[];" vertex="1" connectable="0" parent="tvADo90Zjv4e_7KjPEh_-23">
          <mxGeometry x="-0.4543" relative="1" as="geometry">
            <mxPoint as="offset" />
          </mxGeometry>
        </mxCell>
        <mxCell id="tvADo90Zjv4e_7KjPEh_-17" value="gis system client" style="shape=umlActor;verticalLabelPosition=bottom;verticalAlign=top;html=1;outlineConnect=0;" vertex="1" parent="1">
          <mxGeometry x="40" y="180" width="30" height="60" as="geometry" />
        </mxCell>
        <mxCell id="tvADo90Zjv4e_7KjPEh_-22" style="edgeStyle=orthogonalEdgeStyle;rounded=0;orthogonalLoop=1;jettySize=auto;html=1;exitX=0.5;exitY=0.5;exitDx=0;exitDy=0;exitPerimeter=0;entryX=0;entryY=0.5;entryDx=0;entryDy=0;" edge="1" parent="1" source="tvADo90Zjv4e_7KjPEh_-20" target="tvADo90Zjv4e_7KjPEh_-4">
          <mxGeometry relative="1" as="geometry">
            <Array as="points">
              <mxPoint x="110" y="355" />
              <mxPoint x="110" y="270" />
            </Array>
          </mxGeometry>
        </mxCell>
        <mxCell id="tvADo90Zjv4e_7KjPEh_-25" value="web browser" style="edgeLabel;html=1;align=center;verticalAlign=middle;resizable=0;points=[];" vertex="1" connectable="0" parent="tvADo90Zjv4e_7KjPEh_-22">
          <mxGeometry x="0.5686" y="1" relative="1" as="geometry">
            <mxPoint x="-20" y="46" as="offset" />
          </mxGeometry>
        </mxCell>
        <mxCell id="tvADo90Zjv4e_7KjPEh_-20" value="web app client" style="shape=umlActor;verticalLabelPosition=bottom;verticalAlign=top;html=1;outlineConnect=0;" vertex="1" parent="1">
          <mxGeometry x="40" y="325" width="30" height="60" as="geometry" />
        </mxCell>
      </root>
    </mxGraphModel>
  </diagram>
</mxfile>
